<svg id="图层_1" data-name="图层 1" xmlns="http://www.w3.org/2000/svg" width="116.41441mm" height="32.68109mm" viewBox="0 0 329.99361 92.6393">
  <defs>
    <style>
      .cls-1 {
        fill: #00263e;
      }
    </style>
  </defs>
  <g>
    <g>
      <polygon class="cls-1" points="40.31 41.556 5.723 0 0 0 0 53.67 6.781 53.67 6.781 12.114 41.368 53.67 47.091 53.67 47.091 0 40.31 0 40.31 41.556"/>
      <rect class="cls-1" x="59.82995" width="6.78074" height="53.66965"/>
      <polygon class="cls-1" points="126.696 53.67 126.696 0 119.915 0 119.915 23.445 86.647 23.445 86.647 0 79.866 0 79.866 53.67 86.647 53.67 86.647 30.225 119.915 30.225 119.915 53.67 126.696 53.67"/>
      <path class="cls-1" d="M180.6666,40.05087H156.84044V93.72052h6.78074V75.87591H180.6666a17.91255,17.91255,0,1,0,0-35.825Zm0,29.04321H163.62118V46.8327H180.6666a11.13075,11.13075,0,1,1,0,22.26138Z" transform="translate(-19.42071 -40.05087)"/>
      <polygon class="cls-1" points="193.618 0 186.838 0 186.838 53.67 222.397 53.67 222.397 46.888 193.618 46.888 193.618 0"/>
      <path class="cls-1" d="M266.97433,40.06923c-15.54023,0-26.81926,11.27794-26.81926,26.81631,0,15.53883,11.279,26.81678,26.81926,26.81678,15.53821,0,26.816-11.278,26.816-26.81678C293.79033,51.34717,282.51254,40.06923,266.97433,40.06923Zm0,46.8536c-11.798,0-20.03744-8.23957-20.03744-20.03729,0-11.79725,8.23941-20.03666,20.03744-20.03666,11.796,0,20.03418,8.23941,20.03418,20.03666C287.00851,78.68326,278.77034,86.92283,266.97433,86.92283Z" transform="translate(-19.42071 -40.05087)"/>
      <path class="cls-1" d="M322.57968,40.05087H302.347V93.72052h20.23272a26.83483,26.83483,0,0,0,0-53.66965Zm0,46.888H309.12661V46.8327h13.45307a20.05308,20.05308,0,0,1,0,40.10615Z" transform="translate(-19.42071 -40.05087)"/>
    </g>
    <g>
      <polygon class="cls-1" points="111.13 88.33 105.632 75.054 102.686 75.054 102.686 92.392 104.963 92.392 104.963 78.497 110.042 90.905 112.197 90.905 117.272 78.447 117.272 92.392 119.577 92.392 119.577 75.054 116.604 75.054 111.13 88.33"/>
      <path class="cls-1" d="M153.81715,114.858a8.91642,8.91642,0,1,0,8.96548,8.91586A8.821,8.821,0,0,0,153.81715,114.858Zm-.0487,15.50352a6.58784,6.58784,0,1,1,6.63715-6.58766A6.46564,6.46564,0,0,1,153.76845,130.36152Z" transform="translate(-19.42071 -40.05087)"/>
      <polygon class="cls-1" points="161.353 88.281 150.951 75.054 149.143 75.054 149.143 92.392 151.421 92.392 151.421 79.166 161.849 92.392 163.631 92.392 163.631 75.054 161.353 75.054 161.353 88.281"/>
      <path class="cls-1" d="M195.84061,114.9571l-7.50385,17.48539h2.427l2.17914-5.22561h7.94957l2.18085,5.22561H205.549l-7.5541-17.48539Zm-1.98125,10.07972,3.07136-7.35575,3.04663,7.35575Z" transform="translate(-19.42071 -40.05087)"/>
      <path class="cls-1" d="M217.79224,130.36152a6.5888,6.5888,0,1,1,5.17707-10.823l1.65952-1.70822a9.01237,9.01237,0,0,0-6.81076-2.97226,8.91651,8.91651,0,1,0-.02583,17.83217,9.13924,9.13924,0,0,0,7.28107-3.46746l-1.75815-1.585A6.70683,6.70683,0,0,1,217.79224,130.36152Z" transform="translate(-19.42071 -40.05087)"/>
      <path class="cls-1" d="M237.76294,114.858a8.91642,8.91642,0,1,0,8.96564,8.91586A8.82126,8.82126,0,0,0,237.76294,114.858Zm-.04838,15.50352a6.58784,6.58784,0,1,1,6.63745-6.58766A6.46581,6.46581,0,0,1,237.71456,130.36152Z" transform="translate(-19.42071 -40.05087)"/>
    </g>
  </g>
</svg>
