<svg width="100%" height="100%" viewBox="0 0 160 48" fill="none" xmlns="http://www.w3.org/2000/svg">
  <!-- 取景框外框 - 左上 -->
  <path d="M4 16V8C4 5.79086 5.79086 4 8 4H16" stroke="currentColor" stroke-width="2" stroke-linecap="round"/>
  <!-- 取景框外框 - 右上 -->
  <path d="M144 4H152C154.209 4 156 5.79086 156 8V16" stroke="currentColor" stroke-width="2" stroke-linecap="round"/>
  <!-- 取景框外框 - 右下 -->
  <path d="M156 32V40C156 42.2091 154.209 44 152 44H144" stroke="currentColor" stroke-width="2" stroke-linecap="round"/>
  <!-- 取景框外框 - 左下 -->
  <path d="M16 44H8C5.79086 44 4 42.2091 4 40V32" stroke="currentColor" stroke-width="2" stroke-linecap="round"/>
  
  <!-- 中心几何图形 - 基于Vanto风格 -->
  <path d="M80 14L94 34H66L80 14Z" stroke="currentColor" stroke-width="1.5" stroke-linejoin="round" fill="none" opacity="0.9"/>
  <path d="M80 18L90 33H70L80 18Z" stroke="currentColor" stroke-width="1" stroke-linejoin="round" fill="none" opacity="0.6"/>
  
  <!-- 左侧斜线 -->
  <path d="M56 24L66 24" stroke="currentColor" stroke-width="1.5" stroke-linecap="round" opacity="0.8"/>
  <path d="M58 20L64 28" stroke="currentColor" stroke-width="1" stroke-linecap="round" opacity="0.5"/>
  
  <!-- 右侧斜线 -->
  <path d="M94 24L104 24" stroke="currentColor" stroke-width="1.5" stroke-linecap="round" opacity="0.8"/>
  <path d="M96 28L102 20" stroke="currentColor" stroke-width="1" stroke-linecap="round" opacity="0.5"/>
  
  <!-- 底部装饰点 -->
  <circle cx="80" cy="40" r="1.5" fill="currentColor" opacity="0.7"/>
</svg>