<?xml version="1.0" encoding="UTF-8" standalone="no"?>
<!DOCTYPE svg PUBLIC "-//W3C//DTD SVG 1.1//EN" "http://www.w3.org/Graphics/SVG/1.1/DTD/svg11.dtd">
<svg width="100%" height="100%" viewBox="0 0 668 156" version="1.1" xmlns="http://www.w3.org/2000/svg" xmlns:xlink="http://www.w3.org/1999/xlink" xml:space="preserve" xmlns:serif="http://www.serif.com/" style="fill-rule:evenodd;clip-rule:evenodd;stroke-linecap:round;stroke-linejoin:round;stroke-miterlimit:1.5;">
    <g transform="matrix(1,0,0,1,-652.743195,-2189.148757)">
        <g transform="matrix(1,0,0,1,404.246154,1730.702511)">
            <path d="M248.997,459.001L326.005,458.946L409.999,585.031L392,613.017L353.036,613.035L248.997,459.001" style="fill:none;stroke:black;stroke-width:1px;"/>
        </g>
        <g transform="matrix(1,0,0,1,404.246154,1730.702511)">
            <path d="M248.997,459.001L326.005,458.946L409.999,585.031L392,613.017L353.036,613.035L248.997,459.001" style="fill:none;stroke:black;stroke-width:1px;"/>
        </g>
        <g transform="matrix(1,0,0,1,404.246154,1730.729099)">
            <path d="M248.997,459.001L326.005,458.946L409.999,585.031L392,613.017L353.036,613.035L248.997,459.001" style="stroke:black;stroke-width:1px;"/>
        </g>
        <g transform="matrix(-1,-0.000668,0.000668,-1,1187.654367,2802.927949)">
            <path d="M248.997,459.001L326.005,458.946L409.999,585.031L392,613.017L353.036,613.035L248.997,459.001" style="stroke:black;stroke-width:1px;"/>
        </g>
        <g transform="matrix(1.819241,0,0,1.819241,-379.509269,-2268.9521)">
            <g transform="matrix(50,0,0,50,936.401985,2511.060024)">
            </g>
            <text x="752.979px" y="2511.06px" style="font-family:'ArialMT', 'Arial', sans-serif;font-size:50px;">Portfolio</text>
        </g>
    </g>
</svg>
