<?xml version="1.0" encoding="UTF-8" standalone="no"?>
<!DOCTYPE svg PUBLIC "-//W3C//DTD SVG 1.1//EN" "http://www.w3.org/Graphics/SVG/1.1/DTD/svg11.dtd">
<svg width="100%" height="100%" viewBox="0 0 287 156" version="1.1" xmlns="http://www.w3.org/2000/svg" xmlns:xlink="http://www.w3.org/1999/xlink" xml:space="preserve" xmlns:serif="http://www.serif.com/" style="fill-rule:evenodd;clip-rule:evenodd;stroke-linecap:round;stroke-linejoin:round;stroke-miterlimit:1.5;">
    <g transform="matrix(1,0,0,1,-564.408976,-283.186742)">
        <g transform="matrix(1,0,0,1,315.911935,-175.259503)">
            <path d="M248.997,459.001L326.005,458.946L409.999,585.031L392,613.017L353.036,613.035L248.997,459.001" style="fill:none;stroke:black;stroke-width:1px;"/>
        </g>
        <g transform="matrix(1,0,0,1,315.911935,-175.259503)">
            <path d="M248.997,459.001L326.005,458.946L409.999,585.031L392,613.017L353.036,613.035L248.997,459.001" style="fill:none;stroke:black;stroke-width:1px;"/>
        </g>
        <g transform="matrix(1,0,0,1,315.911935,-175.232916)">
            <path d="M248.997,459.001L326.005,458.946L409.999,585.031L392,613.017L353.036,613.035L248.997,459.001" style="fill:url(#_Linear1);stroke:black;stroke-width:1px;"/>
        </g>
        <g transform="matrix(-1,-0.000668,0.000668,-1,1099.320149,896.965934)">
            <path d="M248.997,459.001L326.005,458.946L409.999,585.031L392,613.017L353.036,613.035L248.997,459.001" style="fill-opacity:0.71;stroke:black;stroke-width:1px;"/>
        </g>
    </g>
    <defs>
        <linearGradient id="_Linear1" x1="0" y1="0" x2="1" y2="0" gradientUnits="userSpaceOnUse" gradientTransform="matrix(-28.647729,5.964251,-5.964251,-28.647729,409.999408,458.919658)"><stop offset="0" style="stop-color:white;stop-opacity:0.71"/><stop offset="0.21" style="stop-color:rgb(156,156,156);stop-opacity:0.71"/><stop offset="0.43" style="stop-color:rgb(51,51,51);stop-opacity:0.71"/><stop offset="1" style="stop-color:black;stop-opacity:0.71"/></linearGradient>
    </defs>
</svg>
