<?xml version="1.0" encoding="UTF-8" standalone="no"?>
<!DOCTYPE svg PUBLIC "-//W3C//DTD SVG 1.1//EN" "http://www.w3.org/Graphics/SVG/1.1/DTD/svg11.dtd">
<svg width="100%" height="100%" viewBox="0 0 738 156" version="1.1" xmlns="http://www.w3.org/2000/svg" xmlns:xlink="http://www.w3.org/1999/xlink" xml:space="preserve" xmlns:serif="http://www.serif.com/" style="fill-rule:evenodd;clip-rule:evenodd;stroke-linecap:round;stroke-linejoin:round;stroke-miterlimit:1.5;">
    <g transform="matrix(1,0,0,1,-1017.319494,-2456.712169)">
        <g transform="matrix(1,0,0,1,768.822453,1998.265923)">
            <path d="M248.997,459.001L326.005,458.946L409.999,585.031L392,613.017L353.036,613.035L248.997,459.001" style="fill:none;stroke:black;stroke-width:1px;"/>
        </g>
        <g transform="matrix(1,0,0,1,768.822453,1998.265923)">
            <path d="M248.997,459.001L326.005,458.946L409.999,585.031L392,613.017L353.036,613.035L248.997,459.001" style="fill:none;stroke:black;stroke-width:1px;"/>
        </g>
        <g transform="matrix(1,0,0,1,768.822453,1998.292511)">
            <path d="M248.997,459.001L326.005,458.946L409.999,585.031L392,613.017L353.036,613.035L248.997,459.001" style="stroke:black;stroke-width:1px;"/>
        </g>
        <g transform="matrix(-1,-0.000668,0.000668,-1,1552.230667,3070.491361)">
            <path d="M248.997,459.001L326.005,458.946L409.999,585.031L392,613.017L353.036,613.035L248.997,459.001" style="stroke:black;stroke-width:1px;"/>
        </g>
        <g transform="matrix(2.487193,0,0,2.487193,-287.853392,-2374.332447)">
            <g transform="matrix(1,0,0,1,61.36339,-400.767821)">
                <path d="M608.485,2392.221L594.618,2356.43L599.745,2356.43L609.047,2382.431C609.795,2384.514 610.422,2386.467 610.926,2388.29C611.48,2386.337 612.123,2384.384 612.855,2382.431L622.523,2356.43L627.357,2356.43L613.343,2392.221L608.485,2392.221Z" style="fill-rule:nonzero;"/>
            </g>
            <g transform="matrix(1,0,0,1,61.36339,-400.767821)">
                <path d="M623.964,2392.221L637.709,2356.43L642.811,2356.43L657.46,2392.221L652.064,2392.221L647.889,2381.381L632.924,2381.381L628.993,2392.221L623.964,2392.221ZM634.291,2377.524L632.924,2381.381L647.889,2381.381L646.425,2377.524L642.689,2367.612C641.55,2364.6 640.704,2362.127 640.15,2360.19C639.694,2362.485 639.051,2364.763 638.221,2367.026L634.291,2377.524Z" style="fill-rule:nonzero;"/>
            </g>
            <g transform="matrix(1,0,0,1,61.36339,-400.767821)">
                <path d="M661.195,2392.221L661.195,2356.43L666.053,2356.43L684.852,2384.531L684.852,2356.43L689.393,2356.43L689.393,2392.221L684.535,2392.221L665.736,2364.096L665.736,2392.221L661.195,2392.221Z" style="fill-rule:nonzero;"/>
            </g>
            <g transform="matrix(1,0,0,1,61.36339,-400.767821)">
                <path d="M706.459,2392.221L706.459,2360.654L694.667,2360.654L694.667,2356.43L723.036,2356.43L723.036,2360.654L711.195,2360.654L711.195,2392.221L706.459,2392.221Z" style="fill-rule:nonzero;"/>
            </g>
            <g transform="matrix(1,0,0,1,61.36339,-400.767821)">
                <path d="M725.551,2374.789C725.551,2368.849 727.146,2364.198 730.336,2360.837C733.526,2357.476 737.644,2355.795 742.689,2355.795C745.993,2355.795 748.972,2356.585 751.625,2358.163C754.278,2359.742 756.3,2361.943 757.692,2364.767C759.083,2367.591 759.779,2370.794 759.779,2374.374C759.779,2378.004 759.047,2381.251 757.582,2384.115C756.117,2386.98 754.042,2389.149 751.356,2390.622C748.671,2392.095 745.773,2392.831 742.665,2392.831C739.296,2392.831 736.285,2392.017 733.632,2390.39C730.979,2388.762 728.968,2386.541 727.601,2383.725C726.234,2380.909 725.551,2377.931 725.551,2374.789ZM730.433,2374.863C730.433,2379.176 731.593,2382.573 733.912,2385.055C736.232,2387.538 739.141,2388.779 742.64,2388.779C746.205,2388.779 749.139,2387.525 751.442,2385.019C753.745,2382.512 754.896,2378.956 754.896,2374.35C754.896,2371.436 754.404,2368.893 753.419,2366.72C752.434,2364.548 750.994,2362.863 749.098,2361.667C747.202,2360.47 745.074,2359.872 742.714,2359.872C739.361,2359.872 736.476,2361.024 734.059,2363.327C731.642,2365.63 730.433,2369.475 730.433,2374.863Z" style="fill-rule:nonzero;"/>
            </g>
        </g>
    </g>
</svg>
